<svg xmlns="http://www.w3.org/2000/svg" viewBox="0 0 900 671" role="img" aria-labelledby="title desc">
  <title id="title">THROHI Medical Tools</title>
  <desc id="desc">THROHI Medical Tools blue and green identity mark</desc>
  <defs>
    <linearGradient id="green" x1="0" y1="0" x2="1" y2="1">
      <stop offset="0" stop-color="#13b85d"/>
      <stop offset="1" stop-color="#008d43"/>
    </linearGradient>
    <linearGradient id="blue" x1="0" y1="0" x2="1" y2="1">
      <stop offset="0" stop-color="#1496df"/>
      <stop offset="1" stop-color="#0567b7"/>
    </linearGradient>
  </defs>
  <g>
    <path fill="url(#green)" d="M54 112h294c-42 28-73 63-88 106H54c-18 0-32-14-32-32v-42c0-18 14-32 32-32Z"/>
    <path fill="url(#blue)" d="M312 112h352c27 0 47 22 44 49-5 46-43 82-89 82H430v216c0 79-51 151-126 174l-31 10V229c0-65 18-94 39-117Z"/>
    <path fill="url(#green)" d="M302 480h59v79c0 15-12 27-27 27h-32V480Z"/>
    <path fill="#fff" opacity=".92" d="M300 111c-28 31-42 70-42 118v410l15-5V229c0-48 14-87 42-118h-15Z"/>
    <g transform="translate(676 57)">
      <circle r="54" cx="0" cy="0" fill="#fff"/>
      <circle r="48" cx="0" cy="0" fill="url(#green)" stroke="#0584c6" stroke-width="3"/>
      <text x="0" y="12" text-anchor="middle" fill="#fff" font-family="Arial,Helvetica,sans-serif" font-size="37" font-weight="700">MT</text>
    </g>
    <g font-family="Arial,Helvetica,sans-serif" font-weight="700" fill="#079a4a">
      <text x="330" y="553" font-size="96" letter-spacing="3">THR</text>
      <text x="565" y="553" font-size="96" letter-spacing="3">HI</text>
    </g>
    <g transform="translate(525 519)">
      <circle r="42" fill="#fff" stroke="#02964a" stroke-width="8"/>
      <rect x="-9" y="-27" width="18" height="54" rx="2" fill="#e51f2e"/>
      <rect x="-27" y="-9" width="54" height="18" rx="2" fill="#e51f2e"/>
    </g>
    <text x="270" y="648" fill="#0879c2" font-family="Arial,Helvetica,sans-serif" font-size="67" font-weight="650" letter-spacing="1">Medical Tools</text>
  </g>
</svg>
